<svg width="70" height="71" viewBox="0 0 70 71" fill="none" xmlns="http://www.w3.org/2000/svg">
<path d="M60.5945 50.6478V41.2042C60.5945 38.9968 58.8148 37.2075 56.6194 37.2075H39.1936H30.1488H12.7252C10.5297 37.2075 8.75 38.9968 8.75 41.2042V50.6478H60.5945Z" fill="#B56714"/>
<path d="M62.0359 50.9325H59.7217V41.4889C59.7217 39.9256 58.4574 38.6545 56.9026 38.6545H13.0083C11.4535 38.6545 10.1892 39.9256 10.1892 41.4889V50.9325H7.875V41.4889C7.875 38.6439 10.1765 36.3277 13.0083 36.3277H56.9026C59.7323 36.3277 62.0359 38.6417 62.0359 41.4889V50.9325Z" fill="#311C00"/>
<path d="M15.3019 6.47054C15.1237 6.54518 14.988 6.67955 14.9201 6.84803C14.8586 6.99945 14.8607 7.16367 14.9222 7.31083C15.0198 7.53903 15.2404 7.68192 15.4971 7.68192C15.5925 7.68192 15.6858 7.66273 15.7792 7.62434C16.1228 7.48145 16.2883 7.11462 16.1589 6.79258C16.0358 6.47907 15.6392 6.32765 15.3019 6.47054Z" fill="#311C00"/>
<path d="M20.3414 5.79132C20.6659 5.45648 20.772 5.06406 20.6511 4.64605C20.4156 3.82282 19.5523 3.55837 18.3135 3.96571C17.7959 4.13846 17.272 4.32188 16.7544 4.50956L16.625 4.55648L18.2711 9.09915L18.4005 9.05223C18.8714 8.87948 19.3508 8.71313 19.8217 8.55531C20.9777 8.17142 21.578 7.39938 21.3489 6.58682C21.2556 6.25838 21.0032 5.87236 20.3414 5.79132ZM18.8502 5.87023C18.6953 5.92141 18.5405 5.97473 18.3856 6.02805L18.0738 5.11951C18.2732 5.05126 18.4726 4.98302 18.672 4.9169C19.1386 4.76335 19.4547 4.82306 19.5353 5.08539C19.6308 5.39676 19.3635 5.70601 18.8502 5.87023ZM18.9838 7.76834L18.6635 6.83421C18.7886 6.79156 18.9138 6.7489 19.0389 6.70625C19.2914 6.62307 19.5099 6.58042 19.6902 6.58042C19.8768 6.58042 20.1144 6.62734 20.1823 6.85127C20.3011 7.23943 19.9023 7.46123 19.5459 7.57853C19.3571 7.64038 19.1705 7.70436 18.9838 7.76834Z" fill="#311C00"/>
<path d="M26.4314 5.43402C26.1238 5.48948 25.9583 5.35085 25.742 5.16317C25.6762 5.10559 25.6083 5.04587 25.532 4.99255C26.0114 4.54468 26.145 3.88781 26.0559 3.39728C25.8671 2.32666 24.9105 1.80841 23.6038 2.09633C23.0735 2.21363 22.5368 2.34159 22.0086 2.47595L21.875 2.51008L23.0544 7.19778L23.188 7.16365C23.4553 7.09541 23.7205 7.02929 23.9877 6.96744L24.1214 6.93545L23.8202 5.6473C23.9453 5.61744 24.0726 5.58971 24.1977 5.55985L24.2295 5.55346C24.2911 5.53853 24.3526 5.52573 24.4098 5.50867C24.5902 5.57478 24.7302 5.72834 24.8892 5.90322C25.1544 6.1954 25.4535 6.52384 26.0283 6.52384C26.1302 6.52384 26.2405 6.51318 26.3529 6.49185C26.8535 6.39801 26.8768 6.32123 26.8895 6.27858L26.9002 6.24659L26.7474 5.37431L26.4314 5.43402ZM24.0874 4.57241C23.9241 4.60866 23.7608 4.64705 23.5974 4.68331L23.2538 3.21814C23.4235 3.17762 23.5911 3.13923 23.7608 3.10297C24.395 2.96221 24.762 3.1307 24.8595 3.62762C24.9614 4.12454 24.7068 4.43378 24.0874 4.57241Z" fill="#311C00"/>
<path d="M31.7376 4.95552C31.0418 5.01311 30.3376 5.08562 29.6418 5.17306L29.54 4.3669C30.1742 4.28799 30.8191 4.21974 31.4597 4.16429L31.5976 4.15149L31.5127 3.16405L31.3748 3.17684C30.7258 3.23229 30.0682 3.30267 29.417 3.38372L29.2918 2.392C30.0258 2.3003 30.7703 2.22352 31.5085 2.16167L31.6464 2.15101L31.5636 1.13797L31.4258 1.14863C30.3312 1.24034 29.2239 1.36404 28.1358 1.52186L28 1.54105L28.6852 6.32686L28.8209 6.30766C29.8115 6.16477 30.8212 6.04961 31.8203 5.96643L31.9582 5.95577L31.8755 4.94273L31.7376 4.95552Z" fill="#311C00"/>
<path d="M38.518 1.25314L38.4183 1.24887L38.3823 1.34271C38.0598 2.1766 37.7459 3.02115 37.4511 3.85931C37.0883 2.97424 36.7044 2.08703 36.3077 1.21901L36.2717 1.1401L35.7986 1.13797L35.7605 1.21901C35.3553 2.08276 34.965 2.9657 34.5959 3.84865C34.3074 3.00409 34.0041 2.15314 33.6923 1.31499L33.6583 1.22115L33.5586 1.22541C33.2277 1.23821 32.8989 1.25314 32.568 1.27233L32.375 1.28299L32.4492 1.46214C33.0623 2.95504 33.6392 4.4842 34.1653 6.00269L34.1992 6.09866L34.6638 6.088L34.6998 6.00695C35.1114 5.06216 35.5526 4.10884 36.0129 3.17471C36.4668 4.11524 36.9017 5.07282 37.3068 6.02615L37.3408 6.10719L37.8117 6.12638L37.8456 6.03041C38.3886 4.52045 38.9826 2.99983 39.6104 1.51333L39.6868 1.33418L39.4938 1.32138C39.1671 1.29153 38.8426 1.2702 38.518 1.25314Z" fill="#311C00"/>
<path d="M46.9948 2.08168C46.7848 2.03903 46.5727 2.0177 46.3627 2.0177C45.0285 2.0177 43.9424 2.87078 43.777 4.04804C43.5755 5.48336 44.5173 6.66915 46.123 6.99758C46.3797 7.0509 46.6406 7.07649 46.8994 7.07649C47.4318 7.07649 47.7988 6.96346 47.8327 6.94L47.9048 6.89308L47.8942 6.80777C47.8645 6.56464 47.8327 6.32151 47.8009 6.07838L47.7797 5.9227L47.6291 5.96322C47.627 5.96322 47.3512 6.03573 46.9418 6.03573C46.717 6.03573 46.4921 6.0144 46.2779 5.96962C45.387 5.78834 44.8355 5.06321 44.967 4.24852C45.0836 3.5234 45.6521 3.07339 46.4455 3.07339C46.6024 3.07339 46.77 3.09045 46.9397 3.12671C47.47 3.23548 47.96 3.56818 48.0767 3.65349L48.1551 3.8369L48.2973 3.64709C48.4479 3.44662 48.5985 3.24828 48.7533 3.04993L48.8679 2.90278L48.7151 2.84519C48.5709 2.72363 47.9918 2.28429 46.9948 2.08168Z" fill="#311C00"/>
<path d="M52.4715 3.92861C52.1533 3.82838 51.8309 3.77719 51.5127 3.77719C50.3185 3.77719 49.3406 4.48738 49.0776 5.54521C48.7382 6.90588 49.5379 8.22603 50.9824 8.68456C51.2963 8.7848 51.6145 8.83385 51.9306 8.83385C53.0442 8.83385 53.9712 8.21323 54.3488 7.21512C54.5757 6.6137 54.5503 5.96749 54.2766 5.39592C53.9479 4.71558 53.3073 4.19307 52.4715 3.92861ZM53.2076 6.81204C52.9891 7.42626 52.4291 7.82508 51.7779 7.82508C51.6124 7.82508 51.4448 7.79949 51.2836 7.7483C50.4712 7.49024 50.0236 6.68408 50.2442 5.87365C50.4203 5.22317 50.9718 4.80516 51.6485 4.80516C51.8245 4.80516 52.0027 4.83288 52.1788 4.89047C52.6221 5.03123 52.9679 5.31488 53.1524 5.6881C53.3242 6.03147 53.3433 6.43028 53.2076 6.81204Z" fill="#311C00"/>
<path d="M56.4091 6.84835C56.3412 6.67986 56.2033 6.54337 56.0294 6.47086C55.6879 6.32796 55.2955 6.47725 55.1703 6.7929C55.0388 7.12133 55.2021 7.4775 55.55 7.62465C55.6391 7.66304 55.7345 7.68224 55.8279 7.68224C56.0867 7.68224 56.3073 7.54148 56.407 7.31328C56.4685 7.16612 56.4706 7.0019 56.4091 6.84835Z" fill="#311C00"/>
<path d="M49.1856 24.6218C49.1856 23.3145 48.9862 22.0284 48.5938 20.8043C48.3923 20.1773 48.0274 19.6291 47.5438 19.1962C47.9404 17.0934 47.3804 15.1611 45.9041 13.7343C44.1711 12.0559 41.4198 11.399 39.1629 12.0346C38.0217 10.4883 36.0108 9.7035 33.7877 9.99569C31.535 10.2943 29.7723 11.5824 29.0511 13.3803C27.4962 13.3121 25.8926 13.8858 24.7789 14.9628C23.6017 16.1016 23.0777 17.6734 23.2771 19.4308C22.9123 19.8211 22.6323 20.286 22.4668 20.8043C22.0744 22.0306 21.875 23.3145 21.875 24.6218C21.875 28.0875 23.1202 32.2548 24.4374 36.6674C25.8523 41.4084 27.3159 49.0414 27.3159 53.3516C27.3159 55.672 26.6456 57.5296 25.9965 59.3274C25.2923 61.2746 24.6283 63.1151 24.8617 65.3118C25.3411 69.8182 35.1156 69.8694 35.5314 69.8694C36.9462 69.8694 39.3411 69.6754 41.4283 69.1315C44.4086 68.3531 46.0144 67.0692 46.2011 65.3118C46.4344 63.1173 45.7704 61.2767 45.0662 59.3274C44.4171 57.5296 43.7468 55.672 43.7468 53.3516C43.7468 49.0414 45.2104 41.4084 46.6253 36.6674C47.9426 32.2548 49.1856 28.0853 49.1856 24.6218Z" fill="#311C00"/>
<path d="M23.625 24.9785C23.625 23.6221 23.8923 22.5024 24.1171 21.8029C24.2868 21.274 24.7726 20.8496 25.3835 20.696C26.9892 20.2908 30.398 19.6126 35.2026 19.6126C40.0071 19.6126 43.418 20.2908 45.0217 20.696C45.6326 20.8496 46.1183 21.274 46.288 21.8029C46.5129 22.5024 46.7802 23.62 46.7802 24.9785C46.7802 25.1726 46.7759 25.3688 46.7674 25.5693C46.0908 25.2942 45.2826 25.0489 44.3386 24.842C43.9377 24.7524 43.5177 24.842 43.1889 25.083C42.8644 25.3219 42.6544 25.6887 42.6162 26.0897L42.2747 29.615C42.2026 30.1184 41.8441 30.5342 41.3583 30.6771C40.1195 31.0418 39.2159 32.1082 39.0568 33.3963L38.9232 34.4776C38.8892 34.7442 38.6644 34.9447 38.3971 34.9447C38.1871 34.9447 38.0174 34.7783 38.0132 34.5715L37.7926 25.4584C37.7735 24.6629 37.1477 24.0252 36.3671 24.0081C32.2647 23.9164 26.8705 24.2427 23.642 25.3795C23.6292 25.2451 23.625 25.1086 23.625 24.9785Z" fill="#F3E8CA"/>
<path d="M29.6026 15.2168C29.8805 15.2808 30.1711 15.2275 30.4086 15.0697C30.6462 14.9118 30.8074 14.6623 30.8583 14.3808C31.1553 12.7045 32.7886 11.9068 34.0953 11.7341C35.3702 11.5656 37.1074 11.9068 37.8117 13.4189C37.9283 13.6706 38.1405 13.8647 38.3992 13.9585C38.658 14.0524 38.9444 14.0396 39.1947 13.9223C40.8089 13.1587 43.138 13.5917 44.4977 14.9054C45.1277 15.5154 45.7259 16.4836 45.6177 17.9083C43.5177 17.4007 40.1408 16.8291 35.5653 16.8291C30.888 16.8291 27.4623 17.4263 25.375 17.9424C25.4598 17.2322 25.7547 16.618 26.2553 16.136C27.0995 15.3192 28.4444 14.9502 29.6026 15.2168Z" fill="#F3E8CA"/>
<path d="M44.3625 65.1951C44.2798 65.965 43.1046 66.7008 41.1361 67.2147C39.1061 67.7436 36.8025 67.8865 35.761 67.8865C34.7195 67.8865 32.418 67.7458 30.3858 67.2147C28.4173 66.7008 27.2401 65.965 27.1595 65.1951C27.1022 64.6512 27.1192 64.1266 27.1892 63.6041C28.1416 64.15 29.4122 64.583 30.9904 64.8943C32.787 65.2505 34.6325 65.3763 35.761 65.3763C37.7995 65.3763 41.8934 64.9882 44.3328 63.5998C44.4049 64.1244 44.4219 64.6512 44.3625 65.1951Z" fill="#B56714"/>
<path d="M42.0021 53.3903C42.0021 56.0797 42.77 58.2038 43.4467 60.0785C43.6079 60.5264 43.7648 60.9593 43.9048 61.3837C42.2694 62.7167 38.1224 63.2178 35.8655 63.2178C33.3858 63.2178 29.3682 62.6463 27.8261 61.3858C27.9661 60.9614 28.123 60.5285 28.2842 60.0806C28.9609 58.206 29.7288 56.0797 29.7288 53.3924C29.7288 48.7773 28.2206 40.9929 26.7612 36.1089C25.8109 32.9269 24.9009 29.8793 24.5 27.2241C26.7018 26.2857 31.3367 25.7098 36.3809 25.776L36.5888 34.3132C36.6248 35.6653 37.7088 36.7232 39.0536 36.7232C40.3667 36.7232 41.4803 35.7357 41.6436 34.4241L41.7773 33.3428C41.8345 32.8822 42.157 32.5004 42.6003 32.3703C43.8815 31.9928 44.8212 30.8902 44.9973 29.5615L45.2709 26.7442C46.1915 26.9852 46.7961 27.2326 47.1927 27.4416C46.777 30.0456 45.8924 33.0144 44.9676 36.1089C43.5103 40.9907 42.0021 48.7751 42.0021 53.3903Z" fill="#F2B918"/>
<path d="M29.1808 29.2336C29.0577 28.6684 28.5041 28.3123 27.9441 28.4338C27.382 28.5575 27.0277 29.1142 27.1487 29.6772C27.5114 31.3471 28.1223 33.2729 28.7693 35.3118C30.7038 41.4071 33.1114 51.7273 31.1111 58.9636C30.9562 59.5202 31.2808 60.0961 31.8344 60.2517C31.9277 60.2773 32.0211 60.2901 32.1144 60.2901C32.5705 60.2901 32.9884 59.9873 33.1156 59.5245C35.2814 51.6868 32.7699 41.0381 30.7505 34.6784C30.1184 32.6864 29.5223 30.8054 29.1808 29.2336Z" fill="#F3E8CA"/>
<path d="M7.65861 20.3196C7.12407 21.2452 6.58952 21.9042 7.46346 23.7874C12.3571 34.4744 14.7413 46.1681 14.4274 57.9577C14.315 61.4553 16.1286 63.2425 17.8001 65.5587C17.6792 66.5717 17.535 67.5826 17.3759 68.5935L19.0326 68.8836C19.198 67.8407 19.3444 66.7978 19.4695 65.7527C21.5377 63.9229 23.8201 62.1911 23.9474 58.1816C24.2953 44.9289 21.612 31.7786 16.101 19.7544C15.1147 17.6302 14.298 17.7198 13.1441 17.4937C14.4274 20.0274 15.5792 22.6186 16.5953 25.2568C16.5953 25.2568 16.4744 25.5916 16.2898 26.08C16.0523 25.5788 15.7595 25.0926 15.435 24.6319C14.4338 22.126 13.3095 19.6627 12.0644 17.2527C11.008 15.2331 10.1998 15.3653 9.04589 15.2139C10.221 17.2847 11.3007 19.3982 12.2871 21.5502C11.9286 21.3326 11.6656 21.2366 11.5595 21.2857C11.4556 21.3348 11.3623 21.6013 11.2901 22.0151C10.3186 19.8909 9.25164 17.8051 8.09346 15.7641C7.62255 16.8411 7.11558 17.4255 8.11255 19.3321C9.28983 21.612 10.3547 23.9431 11.3029 26.3146C11.375 26.8457 11.4747 27.3746 11.6168 27.8758C11.165 27.6582 10.8574 27.5132 10.8574 27.5132C9.91558 25.0713 8.84861 22.6677 7.65861 20.3196Z" fill="#311C00"/>
<path d="M20.125 57.8606C20.5344 55.632 21.6332 53.9812 23.222 53.0428C22.9399 55.3867 21.7562 57.0587 20.125 57.8606Z" fill="#F2B918"/>
<path d="M19.25 52.7485C19.5258 50.507 20.5248 48.7945 22.0542 47.7644C21.9142 50.1168 20.8324 51.8528 19.25 52.7485Z" fill="#F2B918"/>
<path d="M19.25 47.6215C19.3921 45.3715 20.2894 43.6056 21.7551 42.4859C21.753 44.8383 20.7751 46.6319 19.25 47.6215Z" fill="#F2B918"/>
<path d="M18.375 42.4795C18.3835 40.2274 19.1747 38.4124 20.5705 37.2075C20.7083 39.5556 19.8386 41.4025 18.375 42.4795Z" fill="#F2B918"/>
<path d="M16.6863 33.0327C16.4275 30.7955 16.996 28.8952 18.2369 27.5303C18.6548 29.8485 18.01 31.7872 16.6863 33.0327Z" fill="#F2B918"/>
<path d="M15.312 29.7206C13.4283 28.8014 13.212 25.8049 13.125 24.0113C14.3511 25.2461 16.2538 27.8118 15.312 29.7206Z" fill="#F2B918"/>
<path d="M15.75 53.0428C17.4003 53.7573 18.62 55.3142 18.9573 57.5429C17.3494 56.6919 16.2082 55.1478 15.75 53.0428Z" fill="#F2B918"/>
<path d="M15.75 48.6441C17.4406 49.2562 18.7494 50.7342 19.2203 52.9309C17.5658 52.1823 16.3333 50.715 15.75 48.6441Z" fill="#F2B918"/>
<path d="M14.875 43.3657C16.5995 43.8754 17.9932 45.268 18.5935 47.4285C16.8944 46.7823 15.5792 45.3939 14.875 43.3657Z" fill="#F2B918"/>
<path d="M14 38.9669C15.7521 39.37 17.2242 40.6774 17.9518 42.7951C16.2209 42.2534 14.823 40.9482 14 38.9669Z" fill="#F2B918"/>
<path d="M13.125 34.5682C14.8962 34.8668 16.4468 36.0824 17.2974 38.1512C15.5368 37.7161 14.0647 36.4983 13.125 34.5682Z" fill="#F2B918"/>
<path d="M11.375 30.1695C13.1611 30.3614 14.7817 31.4832 15.7553 33.4987C13.9714 33.1681 12.4292 32.0399 11.375 30.1695Z" fill="#F2B918"/>
<path d="M19.25 62.0802C19.793 59.8729 20.9894 58.2861 22.6312 57.4416C22.2091 59.7705 20.9279 61.3743 19.25 62.0802Z" fill="#F2B918"/>
<path d="M15.75 57.4416C17.3558 58.2584 18.4779 59.8899 18.6815 62.142C17.1288 61.1951 16.0809 59.5785 15.75 57.4416Z" fill="#F2B918"/>
<path d="M62.6917 20.3174C63.2262 21.243 63.7607 21.9021 62.8868 23.7852C57.9932 34.4723 55.6089 46.1659 55.9229 57.9577C56.0374 61.4553 54.2217 63.2425 52.5501 65.5587C52.671 66.5717 52.8153 67.5826 52.9744 68.5935L51.3198 68.8836C51.1544 67.8407 51.008 66.7978 50.8829 65.7527C48.8147 63.9229 46.5323 62.1911 46.405 58.1816C46.0571 44.9289 48.7404 31.7786 54.2513 19.7544C55.2377 17.6302 56.0544 17.7198 57.2083 17.4937C55.925 20.0274 54.7732 22.6186 53.755 25.2568C53.755 25.2568 53.8759 25.5916 54.0604 26.08C54.298 25.5788 54.5907 25.0926 54.9153 24.6319C55.9165 22.126 57.0407 19.6627 58.2859 17.2527C59.3423 15.2331 60.1504 15.3653 61.3044 15.2139C60.1292 17.2847 59.0495 19.3982 58.0632 21.5502C58.4217 21.3326 58.6847 21.2366 58.7907 21.2857C58.8947 21.3347 58.988 21.6013 59.058 22.0151C60.0295 19.8909 61.0965 17.8051 62.2547 15.7641C62.7256 16.8411 63.2326 17.4255 62.2356 19.3321C61.0583 21.612 59.9935 23.9431 59.0453 26.3146C58.9732 26.8457 58.8735 27.3746 58.7313 27.8758C59.1832 27.6582 59.4907 27.5132 59.4907 27.5132C60.4368 25.0691 61.5038 22.6656 62.6917 20.3174Z" fill="#311C00"/>
<path d="M47.25 53.0428C48.8388 53.9812 49.9376 55.632 50.347 57.8606C48.7158 57.0587 47.5321 55.3867 47.25 53.0428Z" fill="#F2B918"/>
<path d="M47.25 47.7644C48.7794 48.7945 49.7785 50.5049 50.0542 52.7485C48.4739 51.8507 47.3921 50.1146 47.25 47.7644Z" fill="#F2B918"/>
<path d="M48.125 42.4859C49.5908 43.6056 50.488 45.3715 50.6301 47.6215C49.105 46.6319 48.1271 44.8383 48.125 42.4859Z" fill="#F2B918"/>
<path d="M49.0143 37.2075C50.41 38.4124 51.2012 40.2274 51.2097 42.4795C49.7461 41.4025 48.8764 39.5556 49.0143 37.2075Z" fill="#F2B918"/>
<path d="M50.8069 32.8087C52.1284 34.0969 52.8093 35.9566 52.6842 38.2045C51.2863 37.0421 50.5291 35.1462 50.8069 32.8087Z" fill="#F2B918"/>
<path d="M51.7515 27.5303C52.9946 28.8973 53.5609 30.7955 53.3021 33.0327C51.9764 31.7872 51.3337 29.8485 51.7515 27.5303Z" fill="#F2B918"/>
<path d="M57.564 24.0113C57.477 25.8049 57.2585 28.8014 55.377 29.7206C54.4373 27.8118 56.34 25.2461 57.564 24.0113Z" fill="#F2B918"/>
<path d="M50.75 57.5429C51.0873 55.3142 52.307 53.7573 53.9573 53.0428C53.4991 55.1478 52.3558 56.6919 50.75 57.5429Z" fill="#F2B918"/>
<path d="M50.75 52.9309C51.2209 50.732 52.5297 49.2562 54.2203 48.6441C53.6391 50.715 52.4045 52.1823 50.75 52.9309Z" fill="#F2B918"/>
<path d="M51.625 47.4285C52.2253 45.268 53.6189 43.8754 55.3435 43.3657C54.6392 45.3939 53.322 46.7823 51.625 47.4285Z" fill="#F2B918"/>
<path d="M52.5 42.7951C53.2276 40.6774 54.6997 39.37 56.4518 38.9669C55.6288 40.9482 54.233 42.2534 52.5 42.7951Z" fill="#F2B918"/>
<path d="M53.375 38.1512C54.2256 36.0824 55.7762 34.8668 57.5474 34.5682C56.6077 36.4962 55.1356 37.714 53.375 38.1512Z" fill="#F2B918"/>
<path d="M54.25 33.4987C55.2236 31.4832 56.8421 30.3614 58.6303 30.1695C57.576 32.0399 56.0339 33.1681 54.25 33.4987Z" fill="#F2B918"/>
<path d="M47.25 57.4416C48.8918 58.2861 50.0882 59.8729 50.6312 62.0802C48.9533 61.3743 47.67 59.7705 47.25 57.4416Z" fill="#F2B918"/>
<path d="M51.625 62.142C51.8286 59.8878 52.9508 58.2563 54.5565 57.4416C54.2256 59.5785 53.1777 61.1951 51.625 62.142Z" fill="#F2B918"/>
<path d="M61.4695 41.6062C61.4695 43.8136 59.6898 45.6029 57.4944 45.6029H44.4002H40.0686H13.6002C11.4047 45.6029 9.625 43.8136 9.625 41.6062L9.63773 42.1522V54.3939C9.63773 57.1132 11.8311 59.3162 14.5335 59.3162C16.6505 59.3162 54.442 59.3162 56.5589 59.3162C59.2635 59.3162 61.4547 57.111 61.4547 54.3939V42.1522L61.4695 41.6062Z" fill="#F3E8CA"/>
<path d="M55.9692 60.5106H13.9438C10.605 60.5106 7.88985 57.7807 7.88985 54.4238V42.1948L7.88136 41.8749C7.87712 41.7939 7.875 41.715 7.875 41.6339L10.1892 41.6062L10.1935 41.7875C10.272 43.2782 11.5044 44.4683 13.0083 44.4683H56.9047C58.4595 44.4683 59.7238 43.1972 59.7238 41.6339H62.038C62.038 41.8195 62.0274 42.0008 62.0083 42.1799H62.0232V54.4217C62.0232 57.7786 59.308 60.5106 55.9692 60.5106ZM10.2041 45.9548V54.4238C10.2041 56.4968 11.882 58.1838 13.9438 58.1838H55.9692C58.0311 58.1838 59.7089 56.4968 59.7089 54.4238V45.9548C58.9029 46.4858 57.9377 46.7951 56.9047 46.7951H13.0105C11.9753 46.7951 11.0123 46.4858 10.2041 45.9548Z" fill="#311C00"/>
<path d="M2.91561 50.3023L2.8647 50.2959L2.77561 50.3066L2.7353 50.2959H2.63348L2.59955 50.3066L2.54439 50.3002L2.49985 50.2938H2.4553L2.41712 50.3045L2.37258 50.2938L2.32803 50.3002H2.19439L2.16045 50.2938H2.06924L2.01833 50.3045L1.97803 50.2981H1.93348L1.88258 50.2917L1.84864 50.2981L1.79773 50.3045H1.76167L1.65985 50.2938L1.61955 50.3002L1.575 50.2938H1.40106L1.35652 50.3045H1.31197L1.26742 50.2938L1.22712 50.3002L1.18258 50.2938L1.12742 50.3002L1.08712 50.2938H0.99803L0.947121 50.3002H0.902576L0.875 50.2554L0.902576 50.2L0.908939 50.1594L0.925909 50.1083L0.940758 50.0656L0.951364 49.9867L0.957727 49.9419L0.951364 49.8907L0.957727 49.8523V49.7628L0.951364 49.718L0.957727 49.6732L0.947121 49.6284V49.5772L0.953485 49.5388L0.959848 49.4876L0.953485 49.4364L0.947121 49.3959L0.953485 49.3511L0.947121 49.3064L0.957727 49.268L0.951364 49.2232V49.172L0.957727 49.1315V49.0867L0.951364 49.0355L0.957727 48.9907L0.951364 48.9459L0.957727 48.9054L0.947121 48.8542L0.953485 48.803L0.959848 48.7689L0.949242 48.7241L0.959848 48.6729L0.953485 48.6281L0.947121 48.577L0.957727 48.5428L0.951364 48.4917L0.945 48.4511L0.955606 48.3999L0.949242 48.3552V48.2656L0.942879 48.2144L0.953485 48.1803L0.947121 48.1248V48.0843L0.953485 48.0331L0.947121 47.9883L0.957727 47.9435L0.947121 47.9116L0.957727 47.8604L0.947121 47.8092L0.957727 47.7644V47.6748L0.951364 47.6343V47.5895L0.947121 47.549V47.453L0.957727 47.4018V47.3677L0.951364 47.3165L0.957727 47.2653L0.947121 47.1864L0.953485 47.1352L0.947121 47.0905L0.953485 47.0393V46.9945L0.947121 46.9604L0.953485 46.9156L0.947121 46.8708L0.957727 46.7684L0.947121 46.7343L0.957727 46.6895L0.951364 46.6319L0.945 46.5978L0.955606 46.5466L0.945 46.4954V46.3717L0.955606 46.3206L0.945 46.2416L0.917424 46.1905L0.911061 46.1393L0.900455 46.0945L0.883485 46.054L0.900455 46.0156L0.951364 46.0092H1.03621L1.08712 46.0156H1.13167L1.18258 46.0092L1.21652 46.0156L1.27167 46.0049L1.31197 46.0156L1.36288 46.0092H1.39682L1.44773 46.0156L1.48167 46.0049L1.52621 46.0156L1.58136 46.0049L1.6153 46.0113L1.65985 46.0049H1.79348L1.83803 46.0113L1.89318 46.0177H1.92288L1.96742 46.0113L2.01833 46.0049H2.15197L2.19652 46.0156L2.24742 46.0049H2.28773L2.32591 46.0156H2.38318L2.42348 46.0092L2.46167 46.0156H2.54652L2.64833 46.0049L2.68227 46.0156L2.72682 46.0049H2.77773L2.82864 46.0113L2.86258 46.0049L2.91348 46.0113H2.95803L3.0153 46.0561V46.0902V46.135L3.03864 46.1905L3.03227 46.231L3.03864 46.2651L3.05561 46.3099L3.06621 46.3653L3.05985 46.4059L3.07045 46.4464L3.08106 46.4912V46.5296L3.08742 46.5807L3.09379 46.6149L3.11076 46.6661L3.11712 46.7066V46.7514L3.08318 46.7919L3.05561 46.7684L3.0047 46.762L2.96015 46.7514L2.91561 46.745L2.88803 46.7236L2.78621 46.713H2.69712L2.65682 46.7236H2.60167L2.55712 46.713L2.51258 46.7236H2.47227L2.42773 46.713L2.37258 46.7194H2.23682L2.19227 46.7258H2.15197L2.10106 46.7151L2.06076 46.7258L2.00561 46.7194L1.97167 46.713H1.8847L1.84015 46.7194L1.78924 46.713L1.715 46.7407L1.68106 46.7791L1.65348 46.8345V46.9369L1.65985 46.971L1.66621 47.0222L1.65561 47.0734L1.66621 47.1011L1.65985 47.1459V47.1971L1.66621 47.2483V47.2888L1.65561 47.3336V47.3741L1.66621 47.4253V47.4637L1.65985 47.5149L1.66621 47.5597L1.65561 47.6044V47.6386L1.68318 47.7239L1.785 47.7751L1.84015 47.7815H1.91864L1.97379 47.7708H2.06288L2.14136 47.7537L2.19652 47.7367L2.23682 47.726L2.28773 47.7153L2.33227 47.694L2.37682 47.7324L2.38318 47.7665L2.37258 47.8561L2.37894 47.9137L2.3853 47.9478L2.3747 47.9926L2.38106 48.048L2.3747 48.0822L2.3853 48.1334V48.1845L2.3747 48.2293V48.2741L2.38106 48.3146L2.3747 48.353L2.3853 48.4042L2.3747 48.4447L2.38106 48.4895V48.5407L2.32379 48.5748L2.28348 48.5535L2.24318 48.5428L2.18803 48.5322L2.14348 48.5151L2.05864 48.4981L2.01833 48.5044L1.96106 48.4981L1.92712 48.4917L1.87197 48.5023L1.83167 48.4959H1.78288L1.71076 48.5236L1.69379 48.5471L1.65561 48.6196L1.66621 48.6537L1.65985 48.7092V48.754L1.65348 48.7924L1.66409 48.8329V48.8777L1.65348 48.9289V48.9736L1.65985 49.0078V49.0931L1.65348 49.1443V49.2786L1.65985 49.3127L1.66621 49.3639V49.4599L1.68955 49.5282L1.71288 49.5623L1.79773 49.5857L1.84227 49.5793L1.87621 49.59L1.93136 49.5793L1.9653 49.59L2.00985 49.5836L2.06076 49.59L2.11591 49.5793L2.16045 49.59L2.205 49.5836L2.24318 49.59L2.29409 49.5793L2.33439 49.59L2.3747 49.5836L2.42561 49.5772L2.48288 49.5879L2.52106 49.5815L2.56561 49.5879L2.60379 49.5772L2.65894 49.5879L2.69288 49.5772L2.73742 49.5879H2.78197L2.87106 49.5665L2.91561 49.5601L2.95591 49.5495L2.99621 49.5324L3.05348 49.5218L3.08106 49.5111L3.115 49.5346V49.59V49.6348L3.10439 49.6689L3.09803 49.7244L3.08106 49.7692L3.08742 49.8075L3.06409 49.8481L3.07045 49.8928L3.05985 49.944L3.04288 49.9824V50.0379L3.03227 50.0784V50.1189L3.0153 50.1637L3.00894 50.2213L3.00258 50.2554L2.95167 50.2938L2.91561 50.3023Z" fill="#B56714"/>
<path d="M5.74424 47.1886L5.76121 47.2398L5.77818 47.2803L5.78879 47.3315L5.76545 47.3762L5.72727 47.3656L5.67636 47.3698L5.63606 47.3762L5.59151 47.3698H5.45576L5.40485 47.3656L5.3603 47.3762H5.30939L5.26485 47.3656L5.23091 47.3762L5.18636 47.3656H5.14182L5.08667 47.3762L5.04636 47.3698H5.00394L4.95303 47.3656L4.92545 47.3315L4.94879 47.2803L4.95515 47.2398L4.98273 47.1886V47.1374L4.9997 47.0521L5.0103 47.0009V46.9049L4.9997 46.8537L4.98273 46.7855L4.95515 46.762L4.87667 46.7343H4.82576L4.78121 46.7407L4.74091 46.7343L4.68576 46.7407H4.59667L4.55212 46.73L4.51182 46.7407H4.47364L4.42273 46.7343L4.34424 46.7514L4.31667 46.7855L4.29333 46.8537L4.28697 46.9092V46.954L4.29758 46.9881L4.29121 47.0393L4.28485 47.0841L4.29545 47.1288L4.28485 47.1694V47.2206L4.29121 47.2653V47.3059L4.29758 47.3507L4.28697 47.4061L4.29758 47.4957L4.29121 47.5298L4.28485 47.5874L4.29121 47.6322V47.6727L4.31455 47.7409L4.35485 47.7751L4.42273 47.8092L4.47364 47.8028L4.50758 47.8092H4.55212L4.59667 47.8028L4.64758 47.7964L4.73667 47.8071L4.78121 47.7964L4.83212 47.8071H4.95515L4.9997 47.8007L5.05485 47.7943L5.08879 47.8049L5.1397 47.7985L5.18 47.7921L5.23727 47.7985L5.28182 47.8049L5.32212 47.7943L5.39 47.8284L5.4303 47.8561L5.45788 47.8902L5.48545 47.9286L5.51939 47.9627L5.55333 47.9862L5.59788 48.031L5.62545 48.048L5.65939 48.0822L5.68697 48.1227L5.7103 48.2016V48.2357L5.71667 48.2933V48.3274L5.72303 48.3829V48.4618L5.71667 48.5172L5.72303 48.5556L5.71242 48.6004L5.72303 48.6388L5.71242 48.6964V48.9161L5.71879 48.9566L5.71242 49.0078V49.0419L5.72303 49.0931L5.71667 49.1379L5.7103 49.189V49.268L5.71667 49.3255L5.72303 49.3533V49.4108L5.71242 49.4492V49.5004L5.71879 49.5452L5.72515 49.5793L5.71879 49.6348L5.72515 49.6796L5.71454 49.7244V49.8097L5.72091 49.8502L5.72727 49.9056L5.69333 49.9781L5.65303 50.0059L5.61909 50.04L5.59576 50.0741L5.55758 50.1018L5.53424 50.1424L5.4897 50.1701L5.46636 50.1978L5.43879 50.2362L5.39424 50.2597L5.33273 50.2938L5.28818 50.2874L5.18636 50.2981L5.15242 50.2917H5.08879L5.05485 50.2853L5.00394 50.2917L4.96364 50.2853L4.91273 50.2917L4.87879 50.2981H4.82152L4.78333 50.2874L4.74515 50.2981L4.68788 50.2917L4.64758 50.2853L4.60303 50.2917L4.55212 50.2853L4.51606 50.3023L4.47576 50.2959H4.38667L4.34848 50.3023L4.30394 50.2917L4.25303 50.2981H4.20212L4.16182 50.2917L4.11091 50.3023H4.07697L4.0197 50.2917H3.97939L3.90091 50.2703L3.86697 50.2298L3.83303 50.2021L3.79909 50.168L3.76515 50.1402L3.74182 50.1125L3.70364 50.0784L3.63576 50.0165L3.60818 49.9718L3.57424 49.8928L3.56788 49.8523L3.57849 49.8118V49.7563L3.57212 49.718L3.56576 49.6732L3.57636 49.6284L3.57 49.5836V49.4428L3.57636 49.3981L3.57 49.3639V49.3127L3.57636 49.268L3.55939 49.1826L3.54242 49.1315L3.53606 49.0803L3.50849 49.0462L3.5 48.9992L3.53394 48.9438L3.57212 48.9502H3.67394L3.71424 48.9438H3.76515L3.80545 48.9544H3.85L3.89455 48.9438L3.94545 48.9544L3.97303 48.9502H4.20848L4.25303 48.9544L4.29333 48.9438L4.34424 48.9544L4.36758 48.9886L4.35061 49.044L4.34 49.0845L4.32939 49.1293L4.31242 49.1741L4.30182 49.2637V49.3533L4.29121 49.4151L4.29758 49.4599L4.33151 49.5324L4.35909 49.5537L4.43121 49.5708L4.47576 49.5772L4.5097 49.5836H4.56061L4.61152 49.5729H4.74091L4.79182 49.5793L4.82576 49.5729L4.87667 49.5793L4.95515 49.5516L4.98273 49.5239L5.00606 49.4514L5.01667 49.3725V49.3213L5.0103 49.2701V49.2317L5.01667 49.1869L5.00606 49.1485V49.0462L5.01242 49.0056L5.00606 48.9608V48.8713L5.01667 48.8265L5.00606 48.7817L5.01667 48.7369L5.00606 48.6985L5.01667 48.6537L4.97636 48.5748L4.95303 48.5535L4.87455 48.5194L4.83636 48.5258L4.79606 48.5194H4.69424L4.6497 48.5258L4.61576 48.5194H4.56485L4.52455 48.513L4.48 48.5236H4.42909L4.39515 48.513H4.25939L4.20848 48.5236L4.15758 48.513L4.11303 48.5236H4.02818L3.98364 48.5172L3.90515 48.4895L3.87758 48.4618L3.83939 48.4213L3.81182 48.3829L3.7503 48.3253L3.71212 48.2976L3.66758 48.2485L3.63364 48.2208L3.6103 48.1803L3.57636 48.112L3.57 48.0736L3.57636 48.0161V47.9713L3.57 47.9265L3.57636 47.8924L3.56576 47.8412L3.57636 47.79L3.57 47.7452L3.57636 47.7111V47.6108L3.57 47.5661L3.57636 47.5319L3.56576 47.4765L3.57636 47.4381L3.57 47.3869L3.56364 47.3485L3.57 47.2973L3.57636 47.2568V47.212L3.57 47.1779V47.1225L3.56364 47.0777L3.57424 47.0435L3.56364 46.986V46.8516L3.57 46.8175L3.56364 46.7727L3.57 46.7279L3.56364 46.6767L3.57424 46.6319L3.56364 46.5424L3.57 46.4912L3.57636 46.4464L3.57 46.4123L3.60394 46.3397L3.63788 46.295L3.66758 46.2694L3.70152 46.2416L3.73545 46.1969L3.76939 46.1798L3.8097 46.1457L3.83727 46.1115L3.88182 46.0838L3.91576 46.0497L3.97727 46.022L4.02182 46.0156L4.07909 46.0092L4.11303 46.0198L4.16394 46.0134L4.20848 46.007H4.25303L4.29758 46.0177H4.39303L4.42697 46.007L4.47788 46.0134H4.51606L4.55636 46.007L4.60091 46.0134L4.65606 46.0198L4.69424 46.0134L4.74515 46.007L4.78333 46.0134H4.83424L4.87879 46.007L4.91273 46.0177H4.95091L5.00182 46.0113L5.04212 46.0049H5.09727L5.14182 46.0156L5.18212 46.0049H5.27121L5.31576 46.0113L5.38788 46.0348L5.42182 46.0689L5.45576 46.1094L5.47909 46.1329L5.51303 46.167L5.54697 46.2011L5.59151 46.2288L5.61909 46.2736L5.68697 46.3355L5.72091 46.4144V46.4485L5.7103 46.5061V46.5509L5.72091 46.5914L5.71454 46.6362V46.6874L5.70818 46.7279L5.71454 46.7727V46.9092L5.70818 46.9604L5.71454 47.0009L5.70818 47.0457L5.71879 47.1416L5.74424 47.1886Z" fill="#B56714"/>
<path d="M3.29955 51.3858L3.31015 51.4241L3.30379 51.4689L3.31439 51.5201L3.32076 51.5542L3.33773 51.6054L3.33136 51.6502L3.3547 51.695V51.7291V51.7803L3.37167 51.8315V51.8656L3.38227 51.9232L3.39288 51.9616L3.40348 52.0021V52.0533L3.37591 52.0874L3.31864 52.081L3.27409 52.0704L3.23591 52.0533L3.19136 52.0469L3.15742 52.0362L3.07258 52.0128L3.02167 52.0192L2.98136 52.0256L2.94106 52.017L2.88591 52.0234H2.84561L2.80106 52.0128H2.75015L2.71621 52.0192L2.66106 52.0128H2.61651L2.53803 52.064L2.49773 52.1365L2.50409 52.1813L2.51045 52.2324L2.50409 52.2772V52.3625L2.49773 52.418L2.50833 52.4628V52.5417L2.49773 52.5971V52.6313L2.50409 52.6867L2.49773 52.7208L2.50833 52.772L2.49773 52.8232L2.50833 52.8573L2.50197 52.9128L2.50833 52.9576V52.9981L2.50197 53.0493V53.1794L2.50833 53.2305L2.49773 53.2711V53.3223L2.50833 53.4118L2.49773 53.446L2.50833 53.5355L2.49773 53.5803V53.6763L2.50409 53.7211L2.49773 53.7765L2.50409 53.8106L2.51045 53.8618L2.49985 53.9066L2.50621 53.945L2.49985 53.9898V54.0858L2.50621 54.1263L2.51258 54.1817L2.50621 54.2223V54.2606L2.51258 54.3054V54.4462L2.50197 54.4867V54.5763L2.50833 54.6317V54.7171L2.50197 54.7618L2.51258 54.8066V54.845L2.50197 54.8898L2.50833 54.941V54.9858L2.50197 55.0306L2.50833 55.0817V55.1607L2.5147 55.2054L2.50833 55.2609L2.51894 55.3505L2.54227 55.3846L2.54864 55.4422L2.55924 55.4763L2.58682 55.5317L2.55924 55.5659H2.5147L2.47015 55.5723L2.41288 55.5787H2.37894L2.33439 55.5723H2.23894L2.18803 55.5787L2.14348 55.5723H2.09258L2.05227 55.5787L2.01197 55.568H1.96955L1.91864 55.5744L1.88045 55.5723L1.83591 55.5829L1.77864 55.5723L1.73409 55.5787L1.70652 55.5339L1.72348 55.4934L1.75106 55.4486V55.391L1.77864 55.3569L1.785 55.2545L1.79561 55.2204L1.78924 55.1756L1.78288 55.1244V55.0839L1.79348 55.0284L1.78712 54.9943L1.79348 54.9367V54.8962L1.78288 54.8514L1.78924 54.8109L1.78288 54.7661L1.79348 54.7213V54.5294L1.78288 54.4952L1.78924 54.4505V54.395L1.78288 54.3502L1.78924 54.3054L1.78288 54.2713V54.1753L1.79348 54.1242L1.78288 54.0794V54.041L1.78924 53.9962L1.78288 53.945L1.79348 53.8554L1.78712 53.8149V53.7637L1.79348 53.7296L1.78288 53.6678L1.78924 53.6336L1.79561 53.5888L1.78924 53.5313L1.78288 53.4971L1.79348 53.446L1.78712 53.4076L1.79348 53.3628L1.78288 53.3116V53.2604L1.78924 53.222L1.79561 53.1772V53.1388L1.785 53.0941V52.9597L1.79561 52.9042L1.785 52.8637L1.79136 52.8253V52.7805L1.785 52.7358L1.79561 52.691L1.785 52.6462L1.79561 52.595L1.78924 52.5502V52.5054L1.78288 52.4542V52.4201L1.79348 52.3647L1.78712 52.3199L1.79348 52.2858L1.78712 52.2346L1.78076 52.1898V52.1493L1.75742 52.064L1.72348 52.0405L1.65561 52.0234L1.59833 52.017H1.57076L1.52621 52.0234L1.4753 52.017L1.43076 52.0234L1.37985 52.0128L1.34167 52.0234L1.30136 52.0128L1.24621 52.0234L1.20591 52.017L1.07652 52.0341L1.03197 52.0448L0.987424 52.0618L0.953485 52.0682L0.902576 52.0853L0.875 52.0448L0.881364 52.0106V51.9595L0.89197 51.9147L0.902576 51.8741V51.823L0.908939 51.7718L0.932273 51.7334L0.938636 51.695L0.945 51.6545V51.6097L0.96197 51.5649V51.5095V51.4711L0.985303 51.4263V51.3751V51.341L1.03197 51.2962L1.08712 51.2898H1.16561L1.21015 51.2834L1.26106 51.2898L1.31197 51.2834L1.35652 51.2898L1.39682 51.2834L1.44136 51.294L1.48591 51.2834H1.53682L1.57076 51.294L1.62591 51.2834L1.67045 51.294H1.70439L1.7553 51.2876L1.79561 51.294H1.84015L1.8847 51.2834L1.93561 51.2898L1.98015 51.2834H2.02045L2.07136 51.2898H2.12227L2.15621 51.2962H2.21348L2.24742 51.2855H2.3047L2.34924 51.2919L2.39379 51.2855H2.43197L2.48288 51.2962L2.57197 51.2855L2.61227 51.2919L2.66318 51.2855L2.70348 51.2962L2.79258 51.2855H2.92197L2.97712 51.2919H3.01742L3.06197 51.2983L3.11288 51.2919L3.15318 51.2855L3.19773 51.2962L3.24864 51.2898L3.28682 51.3282L3.29955 51.3858Z" fill="#B56714"/>
<path d="M3.55303 51.4796L3.5297 51.4348L3.52333 51.39L3.5 51.3452L3.52758 51.2941L3.56788 51.3004H3.62515L3.65909 51.2941H3.71424L3.75879 51.2877H3.79273L3.88182 51.2983H3.92636L3.97091 51.2877L4.01545 51.2941H4.05576L4.10667 51.2877L4.15758 51.2983L4.19788 51.2919L4.24879 51.2983L4.29333 51.2919H4.33364L4.37394 51.2855L4.42909 51.2962L4.46303 51.2898L4.51394 51.2834H4.54788L4.59879 51.2898H4.63909L4.68364 51.2834L4.73879 51.2898L4.77273 51.2834L4.83 51.2941L4.86394 51.2834H4.90424L4.96151 51.2898H5.04L5.09727 51.2834L5.13758 51.2941L5.18848 51.2877H5.23303L5.27121 51.2941L5.31151 51.2834L5.38364 51.3175L5.42182 51.358L5.46212 51.3815L5.49606 51.4199L5.52364 51.454L5.55757 51.4711L5.58091 51.5159L5.62121 51.5436L5.66151 51.5713L5.68485 51.6118L5.71879 51.6801L5.72939 51.7355L5.71879 51.7739V51.8251L5.72515 51.8592L5.73151 51.904L5.72515 51.9595L5.73151 52.0042L5.72515 52.0448L5.71879 52.0959L5.72939 52.1855V52.226L5.72303 52.2772L5.72939 52.3178V52.3561L5.71879 52.4073V52.4521L5.72515 52.5033L5.73151 52.5481V52.5929L5.72515 52.6334V52.6846L5.71879 52.723V52.9533L5.72515 52.9938L5.69757 53.0727L5.65303 53.1005L5.61909 53.1282L5.58515 53.1559L5.55121 53.1943L5.52364 53.2348L5.49606 53.2583L5.46212 53.286L5.41758 53.3201L5.39 53.3649V53.4268L5.41758 53.4609L5.45151 53.4843L5.4897 53.5227L5.52364 53.5505L5.55757 53.5888L5.59151 53.6123L5.62545 53.6571L5.65939 53.6806L5.6997 53.7147L5.72303 53.8V53.8448L5.73364 53.8789L5.72727 53.9237V53.9685L5.73364 54.0133V54.0644L5.72727 54.1092L5.73364 54.154L5.72303 54.1924L5.73364 54.2436L5.72727 54.2884L5.73364 54.3225V54.4249L5.72303 54.4654V54.6787L5.73364 54.7362L5.72303 54.8258L5.73364 54.9005L5.72727 54.9453L5.73364 55.0007L5.72303 55.0455L5.73364 55.0903L5.72303 55.1308V55.1692L5.68909 55.2481L5.66151 55.2822L5.62333 55.3163L5.59576 55.3505L5.55545 55.3739L5.53848 55.4081L5.49818 55.4528L5.46424 55.4806L5.42394 55.504L5.40061 55.5424L5.32848 55.5829L5.27333 55.5765L5.22879 55.5701H5.16939L5.13545 55.5765L5.09091 55.5829L5.04 55.5765H4.95091L4.90636 55.5701L4.87242 55.5808L4.82151 55.5701H4.73667L4.68576 55.5808H4.64545L4.59455 55.5701L4.54364 55.5808L4.5097 55.5744L4.45455 55.5808L4.42061 55.5744H4.37606L4.32515 55.568H4.29121L4.24667 55.5787L4.20212 55.568L4.15121 55.5787L4.1003 55.5723L4.05576 55.5787H4.01121L3.97091 55.568H3.93061L3.8797 55.5744L3.84152 55.5808L3.79061 55.5744L3.7503 55.568H3.52121L3.50424 55.5275L3.51061 55.4763L3.53394 55.4251L3.55091 55.3867L3.55727 55.3462L3.58485 55.2438L3.57424 55.2097L3.58485 55.1649V55.1137L3.57424 55.069L3.58061 55.0178L3.58697 54.9794L3.58061 54.9389V54.8941L3.58697 54.8493L3.57636 54.7917V54.7469L3.58697 54.7064L3.57636 54.6616L3.58273 54.6104V54.5656L3.57636 54.5315L3.58273 54.4739L3.57636 54.4398V54.3844L3.58273 54.3396L3.57636 54.299L3.58273 54.2479L3.58909 54.2137L3.57848 54.1689L3.58909 54.1135V54.073L3.58273 54.0218V53.9877L3.57636 53.9429L3.58273 53.8917V53.8469L3.58909 53.8085L3.57848 53.7573V53.7168L3.58485 53.672L3.59121 53.6208V53.5355L3.58273 53.5057V53.4481L3.58909 53.4097L3.57848 53.3585L3.58485 53.3137V53.2796L3.59121 53.2284V53.1324L3.58485 53.0983V53.0024L3.59121 52.9576L3.58061 52.9128L3.58697 52.868L3.59333 52.8168V52.772L3.58697 52.7315L3.58061 52.6803V52.5907L3.58697 52.5566L3.58061 52.5012L3.59121 52.4223L3.58061 52.3647L3.59121 52.3242L3.58485 52.2858L3.57848 52.2303L3.58485 52.1962L3.57848 52.145V52.049L3.58485 52.0085V51.9125L3.57848 51.872L3.58485 51.8208L3.57848 51.7867V51.6907L3.58909 51.6502V51.5948L3.57212 51.5095L3.55303 51.4796ZM4.28909 52.1727L4.27848 52.2175L4.28909 52.2623L4.27848 52.2964V52.4308L4.28909 52.4756L4.27848 52.5161V52.6014L4.28909 52.691L4.27848 52.7422L4.28909 52.7827L4.27848 52.8339V52.868L4.28909 52.9234L4.31667 52.9853L4.34424 53.0194L4.42273 53.0407H4.46091L4.51182 53.0471H4.55636L4.59667 53.0407L4.63697 53.0471L4.69212 53.0407L4.73242 53.0471L4.82151 53.0365H4.87242L4.94455 53.0088L4.96151 52.9917L5.00182 52.9192L4.99545 52.8787L5.00182 52.8339V52.7784L4.99121 52.7507L5.00182 52.6995V52.6526L4.99121 52.6014L5.00182 52.5673L4.99121 52.5225L5.00182 52.4329L4.99121 52.3881L4.99758 52.3369V52.3092L4.99121 52.2538V52.2132L4.99758 52.1685V52.1173L4.96364 52.049L4.9403 52.0256L4.86818 51.9914H4.83L4.78545 51.9978L4.73455 52.0042L4.69424 51.9936L4.63909 52.0042H4.55L4.51606 51.9936H4.46939L4.42485 52L4.34636 52.0341L4.31242 52.0618L4.28485 52.1301L4.28909 52.1727ZM4.93394 53.7915L4.86182 53.7509L4.82788 53.7573H4.78333L4.73242 53.7509L4.69212 53.7573H4.64121L4.59667 53.7637L4.55636 53.7531L4.49909 53.7637H4.41424L4.34212 53.7872L4.31455 53.8107L4.28061 53.8789L4.27424 53.9237V53.9749L4.28485 54.0197V54.0602L4.27424 54.1156L4.28485 54.1562L4.27424 54.1967L4.28485 54.2415V54.3268L4.27424 54.378V54.4227L4.28061 54.4633L4.27424 54.5017L4.28485 54.5464V54.5912L4.27848 54.6424V54.732L4.30182 54.8045L4.33576 54.8386L4.41424 54.8663H4.50333L4.54788 54.8557L4.59242 54.8621H4.67727L4.72818 54.8557L4.76636 54.8663L4.81091 54.8621L4.86606 54.8557L4.93394 54.8386L4.95727 54.8109L4.99121 54.732V54.6467L4.99758 54.5955L4.99121 54.5507V54.5059L4.99758 54.4611L4.98697 54.4163L4.99333 54.378L4.9997 54.3268L4.98909 54.2926L4.9997 54.2415L4.98909 54.2009L4.9997 54.1562L4.99333 54.105L4.9997 54.0708L4.98909 54.0261V53.9706L4.9997 53.9258L4.98909 53.8917L4.96576 53.8128L4.93394 53.7915Z" fill="#B56714"/>
<path d="M66.7089 50.1147L66.7259 50.153L66.7365 50.2042L66.7599 50.2448L66.7196 50.2959L66.6814 50.2895L66.6368 50.2959H66.5477L66.5074 50.3023H66.4523L66.4141 50.2959L66.3696 50.3023L66.325 50.2959L66.2741 50.3023L66.2402 50.2959L66.1892 50.2895H66.1447L66.1002 50.2959L66.0599 50.3023L66.0153 50.2917H65.9135L65.8965 50.2576L65.9135 50.2128L65.9199 50.168L65.9411 50.1104L65.958 50.0763L65.9644 49.9803L65.9708 49.9248L65.9771 49.8865L65.9665 49.8353V49.7905L65.9729 49.7564L65.9665 49.7009L65.9771 49.6113L65.9665 49.5666L65.9771 49.4876L65.9708 49.4365L65.9644 49.3959L65.975 49.3447L65.9686 49.2936L65.975 49.2488L65.9644 49.2083L65.975 49.1571L65.9644 49.1123L65.975 49.0739L65.9644 49.0291V48.9907L65.9708 48.9353V48.8905L65.9771 48.8457L65.9708 48.8052V48.7156L65.9644 48.6751L65.975 48.6196L65.9686 48.5748L65.975 48.53L65.9644 48.4895L65.975 48.4383L65.9644 48.3872L65.9708 48.3424V48.3019L65.9644 48.2635V48.1227L65.975 48.0843L65.9686 48.0331L65.9623 47.9883V47.95L65.9686 47.8945V47.854L65.9623 47.8092V47.7644L65.9686 47.7132L65.9623 47.6727L65.9686 47.6215L65.975 47.5767L65.9686 47.5426V47.4872L65.9623 47.453L65.9686 47.4018L65.9623 47.3571V47.2717L65.9686 47.2206L65.9623 47.1822V47.1267L65.9729 47.0926V47.0371L65.9326 46.9646L65.905 46.9412L65.8435 46.9028L65.7989 46.9134H65.7098L65.6589 46.9071L65.625 46.8729L65.6483 46.8175L65.6547 46.777L65.6653 46.7428L65.6929 46.6469L65.7035 46.6127L65.7141 46.568L65.7205 46.5296L65.7438 46.489L65.7502 46.4443L65.7735 46.3995V46.3653L65.7968 46.3078L65.8032 46.28L65.8202 46.2352L65.8308 46.1905L65.8371 46.1499L65.8541 46.1115L65.8711 46.054L65.9326 46.0198H66.062L66.1129 46.0134L66.1532 46.0198L66.2041 46.0092H66.2359L66.2805 46.0198L66.3314 46.0134L66.3759 46.007H66.4099L66.4608 46.0177L66.4989 46.0113H66.5499L66.6008 46.0049H66.6389L66.6835 46.0497L66.6771 46.1009V46.1969L66.6877 46.2374L66.6814 46.2779L66.6877 46.3227L66.6814 46.3739V46.4144L66.675 46.4592V46.5104L66.6856 46.5616L66.6792 46.5999L66.6856 46.6405V46.6853L66.675 46.73L66.6814 46.7855L66.6877 46.8196V46.8644L66.6771 46.9092L66.6877 46.9497L66.6771 47.0521L66.6835 47.0862V47.227L66.6771 47.2781V47.3165L66.6877 47.3677L66.6771 47.4082L66.6835 47.453L66.6899 47.4935L66.6835 47.5447L66.6899 47.5831L66.6792 47.6407L66.6856 47.6812V47.726L66.6792 47.7772V47.8156L66.6856 47.8668L66.6792 47.9073V47.9457L66.6899 48.0011L66.6835 48.0417L66.6771 48.0864L66.6835 48.1376V48.1718L66.6899 48.2165V48.272L66.6835 48.3061L66.6771 48.3573L66.6835 48.4085L66.6771 48.4426L66.6877 48.5002V48.5386L66.6814 48.5834L66.6877 48.6218L66.6814 48.6729V48.7177L66.6877 48.7689V48.803L66.6771 48.8606L66.6877 48.8947V49.0355L66.6771 49.0867L66.6877 49.1251L66.6771 49.1699L66.6877 49.2211L66.6814 49.2552V49.3L66.675 49.3511L66.6814 49.3959L66.6877 49.4471V49.4919L66.6814 49.5367L66.675 49.5751L66.6814 49.6199L66.675 49.6711V49.7606L66.6814 49.8012L66.675 49.8459L66.6814 49.8971V49.9419L66.6877 49.9867L66.6941 50.072L66.7089 50.1147Z" fill="#B56714"/>
<path d="M68.4112 46.0732L68.4451 46.1115L68.4833 46.1393L68.5236 46.1798L68.547 46.2075L68.5745 46.231L68.6148 46.2758L68.6424 46.3099L68.6827 46.3334L68.7103 46.4059L68.7167 46.4507L68.7061 46.5061L68.7124 46.5402L68.7188 46.5957V46.6298L68.7124 46.681V46.7258L68.7188 46.777L68.7124 46.8111L68.7061 46.8559V46.9454L68.7124 46.9966V47.0371L68.7188 47.0883L68.7124 47.1395L68.7188 47.1736V47.2184L68.7124 47.2632L68.7061 47.3187L68.7167 47.3635L68.7103 47.404V47.4488L68.7167 47.4893L68.7103 47.5405V47.5853L68.7039 47.63L68.7145 47.6748V47.7196L68.7039 47.7708L68.7103 47.8156L68.7039 47.8561V47.9073L68.7103 47.9457L68.7039 47.9969L68.7103 48.031L68.7167 48.0822L68.7103 48.1227L68.7039 48.1675L68.7145 48.2251V48.2592L68.7082 48.3146L68.7145 48.3552L68.7082 48.3957L68.7145 48.4405L68.7082 48.4981V48.5428L68.7145 48.5834L68.7039 48.6218L68.7103 48.6729L68.7039 48.7177L68.7103 48.7582V48.803L68.7039 48.8542V48.9438L68.7103 48.995L68.7167 49.0291L68.7103 49.0846L68.7167 49.1293L68.7103 49.1699V49.3447L68.7167 49.3959L68.7103 49.4365L68.7167 49.4919L68.7061 49.526V49.6156L68.7124 49.671L68.7061 49.7116L68.7167 49.75L68.7061 49.8054L68.7167 49.8459V49.8865L68.6764 49.9718L68.653 50.0059L68.6191 50.04L68.5745 50.0805L68.5406 50.1083L68.5236 50.136L68.4897 50.1701L68.4451 50.2042L68.4176 50.232L68.39 50.2725L68.3051 50.3002L68.267 50.2938L68.2267 50.3002L68.1821 50.3066L68.1376 50.3002L68.0867 50.3066H67.9064L67.8724 50.3002H67.8215L67.7706 50.2938L67.7367 50.3045L67.6858 50.2981L67.6455 50.3045L67.6009 50.2938L67.5458 50.3045L67.5012 50.2981L67.4673 50.2917L67.4164 50.2981L67.3824 50.2917L67.3315 50.2981H67.2424L67.1915 50.3045L67.1512 50.2938L67.113 50.3045H67.0621L67.0176 50.2938L66.9667 50.3002L66.8988 50.2661L66.8648 50.2383L66.8309 50.2042L66.8033 50.1637L66.7758 50.1296L66.7376 50.1019L66.71 50.0741L66.6824 50.0357L66.6379 50.008L66.6145 49.9803L66.5742 49.8907L66.5806 49.8459V49.767L66.587 49.7158L66.5806 49.671L66.587 49.6305V49.5751L66.5764 49.5346L66.587 49.4898L66.5764 49.445L66.5827 49.3938V49.3085L66.5891 49.2637L66.5615 49.1741L66.5509 49.1336L66.5339 49.0888L66.5 48.9992L66.5339 48.9481H66.5742L66.6252 48.9545L66.6761 48.9481H66.7142L66.7652 48.9417L66.8055 48.9481L66.8564 48.9417H66.8945L66.9455 48.9481L66.9794 48.9417H67.0367L67.0812 48.9481L67.1215 48.9417L67.1661 48.9481H67.2106L67.2615 48.9545L67.3018 48.9438H67.3464L67.3803 48.995L67.3591 49.0334L67.3485 49.0782L67.3273 49.1293L67.3103 49.1699L67.2933 49.2765L67.287 49.3106V49.3554L67.2933 49.4002V49.4514L67.3273 49.5303L67.3485 49.558L67.427 49.5793L67.4609 49.5857L67.5161 49.5751H67.55L67.6073 49.5857L67.6412 49.5751H67.6921L67.7367 49.5857L67.777 49.5751L67.8321 49.5857H67.8703L67.9488 49.5516L67.9764 49.5282L68.0039 49.4492L67.9976 49.4045L68.0039 49.3703V49.2808L68.0103 49.2253V49.1805L67.9997 49.1464L68.0061 49.1016L68.0124 49.044V48.8691L68.0061 48.8286L68.0124 48.7838L68.0061 48.7433L68.0124 48.6985L68.0018 48.6537L67.9742 48.5812L67.9467 48.5471L67.8851 48.5194H67.8406L67.7961 48.5258L67.7048 48.5151H67.6051L67.5648 48.5215L67.5203 48.5279L67.4694 48.5215H67.4312L67.3973 48.5151L67.34 48.5215H67.2955L67.2551 48.5151L67.2148 48.5215L67.1597 48.5151L67.0706 48.5258L67.0367 48.5151H66.9815L66.9136 48.4874L66.8861 48.4639L66.8415 48.4298L66.8139 48.385L66.7906 48.3509L66.7567 48.3232L66.7121 48.3018L66.6845 48.2613L66.657 48.2272L66.6188 48.1867L66.5955 48.1184L66.6018 48.08L66.5912 48.0353L66.6018 47.9841L66.5955 47.9436V47.8988L66.6018 47.8476L66.5912 47.7964V47.7175L66.5976 47.6663L66.6039 47.6258L66.5976 47.581V47.5362L66.5912 47.4978L66.5976 47.4466L66.5912 47.4018L66.5976 47.3571V47.2611L66.6039 47.2334L66.5933 47.1758L66.6039 47.1416V47.0841L66.5976 47.0457L66.6039 47.0052V46.9092L66.5976 46.8687L66.6039 46.8132L66.5976 46.7791L66.5912 46.7279L66.6018 46.6938L66.5955 46.6426V46.5978L66.6018 46.553V46.5082L66.5912 46.4634V46.4187L66.6252 46.3461L66.6591 46.312L66.6994 46.2779L66.7545 46.2161L66.7927 46.1755L66.8203 46.1414L66.8542 46.1137L66.8818 46.0796L66.9158 46.0454L66.9879 46.0177H67.0324L67.077 46.0113H67.217L67.2573 46.0049L67.3018 46.0156L67.3527 46.0092L67.3867 46.0156L67.427 46.0049L67.4842 46.0113L67.5288 46.0177L67.5691 46.0113H67.6539L67.7048 46.0177H67.7451L67.7897 46.007L67.847 46.0134L67.8915 46.007H67.9255L67.9636 46.0134L68.0145 46.0198H68.0527L68.1079 46.0134L68.1418 46.0198H68.2373L68.2882 46.0092H68.3221L68.407 46.054L68.4112 46.0732ZM67.9339 46.7492L67.8661 46.7258L67.8215 46.7194H67.777L67.7261 46.73L67.6815 46.7194L67.637 46.7258H67.5521L67.497 46.7322L67.463 46.7258L67.4058 46.7322L67.3336 46.7599L67.3167 46.7834L67.2827 46.8559L67.2764 46.89L67.2827 46.9412L67.2764 46.9924L67.287 47.0371L67.2806 47.0713L67.2742 47.1161V47.1715L67.2806 47.2163L67.2742 47.2611L67.2848 47.3016L67.2742 47.3528L67.2848 47.3869L67.2785 47.4317V47.4765L67.2721 47.5213V47.5767L67.2785 47.6215L67.2848 47.6599L67.3082 47.7281L67.3358 47.7559L67.4142 47.7943H67.4991L67.55 47.7836L67.5839 47.7943H67.7176L67.7748 47.7836L67.8152 47.79L67.8597 47.7964L67.9382 47.7623L67.9658 47.7409L67.9891 47.6556L67.9954 47.6215L67.9891 47.5767V47.5255L67.9827 47.4808L67.9933 47.436V47.3912L67.987 47.34L67.9806 47.3059L67.987 47.2547L67.9806 47.2099L67.987 47.1651L67.9933 47.1139V46.9838L67.987 46.9326L67.9933 46.8921L67.9827 46.8409L67.9594 46.7727L67.9339 46.7492Z" fill="#B56714"/>
<path d="M66.6188 51.3623L66.64 51.3964L66.6845 51.4241L66.7121 51.4583L66.7461 51.4817L66.7694 51.5222L66.8309 51.5905L66.8648 51.6289L66.8924 51.6971L66.8988 51.7483V51.7888L66.8924 51.8336L66.8988 51.8784L66.8924 51.9296L66.903 51.9744V52.1151L66.8924 52.1599L66.903 52.1941L66.8967 52.2388L66.8903 52.2943L66.9009 52.3391L66.8945 52.3775L66.8882 52.4223L66.8945 52.4734V52.5523L66.8882 52.5971L66.8945 52.6547L66.9009 52.6995L66.8945 52.7336L66.9009 52.7784L66.8903 52.8232L66.8967 52.8744V52.9192L66.8903 52.9704L66.8967 53.0087L66.8691 53.0877L66.8288 53.1218L66.8054 53.1602L66.7651 53.1836L66.7312 53.2114L66.7036 53.2561L66.6761 53.2903L66.6485 53.3073L66.5806 53.3798L66.5742 53.4374L66.6357 53.5163L66.6761 53.5334L66.7036 53.5675L66.7376 53.6123L66.7779 53.6358L66.7991 53.6699L66.8394 53.6976L66.8627 53.7381L66.9009 53.8234L66.8903 53.8618L66.9009 53.913L66.8903 53.9471V53.9983L66.9009 54.0388L66.8945 54.0943L66.9009 54.1391V54.1839L66.8945 54.2287L66.8882 54.2628L66.8988 54.3076L66.8882 54.3524L66.8945 54.4035L66.9009 54.4441L66.8903 54.4952L66.9009 54.54L66.8903 54.5806L66.9009 54.636V54.6765L66.8903 54.7277V54.7725L66.8967 54.8173V54.8578L66.903 54.8983V54.9495L66.8967 54.9943L66.903 55.0455V55.086L66.8924 55.1372V55.182L66.8691 55.2609L66.8288 55.2843L66.8054 55.3227L66.7779 55.3569L66.7439 55.391L66.7164 55.4144L66.6782 55.4486L66.6442 55.4891L66.6209 55.5168L66.5764 55.5616L66.5085 55.5851L66.4639 55.5787H66.3791L66.3345 55.5893L66.29 55.5829L66.2391 55.5765L66.1945 55.5872L66.15 55.5765L66.1054 55.5872H66.0609L66.0206 55.5808L65.9761 55.5744L65.9315 55.5851L65.8806 55.5744L65.8297 55.5808L65.7958 55.5744L65.7554 55.5808L65.7003 55.5744H65.6112L65.5667 55.5851L65.5327 55.5787H65.4373L65.3991 55.5851H65.3482L65.2973 55.5787H65.2633L65.2124 55.5851L65.1721 55.5744L65.0873 55.5509L65.0597 55.5168L64.9982 55.455L64.9579 55.4208L64.9239 55.3825L64.8964 55.3483L64.8624 55.3142L64.8221 55.2865L64.7882 55.2481L64.75 55.1798L64.7542 55.1244L64.7606 55.0796L64.7542 55.0455V54.9879L64.7606 54.9538L64.75 54.909L64.7542 54.8578L64.75 54.8173V54.7618L64.7606 54.7171L64.7542 54.6723V54.6381L64.75 54.5827L64.7606 54.5379V54.459L64.7542 54.4078V54.3673L64.7606 54.3225V54.2777L64.7542 54.2265L64.7606 54.1753V54.09L64.75 54.0452L64.7606 54.0005L64.75 53.9493L64.7606 53.9109L64.75 53.8704L64.7542 53.8192L64.7945 53.7467L64.8285 53.7019L64.8518 53.6742L64.8794 53.6464L64.9197 53.6187L64.9473 53.5739L64.9876 53.5398L65.0109 53.5163L65.0788 53.4438V53.382L65.0406 53.3606L65.013 53.3201L64.9897 53.2988L64.9494 53.2647L64.9261 53.2199L64.8815 53.1922L64.8582 53.1644L64.8242 53.1367L64.7903 53.0983L64.7627 53.013L64.7564 52.9725V52.9277L64.7627 52.8765L64.7564 52.8317L64.7627 52.7976L64.7521 52.74L64.7627 52.7016L64.7606 52.6547L64.7564 52.6035L64.7606 52.563L64.7564 52.5182L64.767 52.4628L64.7606 52.4287V52.3732L64.7564 52.3284V52.2943L64.7606 52.2431V52.1983L64.7564 52.1535L64.767 52.1087L64.7606 52.0704L64.767 52.0128V51.9275L64.7606 51.8763L64.7564 51.8315L64.7606 51.7974L64.767 51.7526L64.7564 51.7014L64.7945 51.6225L64.8285 51.5884L64.8561 51.55L64.8942 51.5159L64.9621 51.454L64.9897 51.4199L65.0236 51.3964L65.0682 51.3623L65.1021 51.3175L65.17 51.294L65.2082 51.2876L65.2527 51.294L65.3036 51.2834L65.3545 51.2898L65.3927 51.2834H65.5221L65.5667 51.2898L65.6176 51.2962L65.6685 51.2898H65.7088L65.7491 51.2962L65.7936 51.2855L65.8445 51.2962L65.8785 51.2898L65.923 51.2962L65.9803 51.2855H66.0206L66.0588 51.2962L66.1097 51.2855L66.15 51.2919H66.2051L66.2391 51.2983L66.29 51.2876L66.3345 51.294H66.3727L66.4173 51.2876L66.4682 51.2983L66.5191 51.2876L66.587 51.3218L66.6188 51.3623ZM66.0673 52.0106L66.0227 52.0042L65.9718 52.0149L65.9273 52.0085H65.8827L65.8276 52.0149H65.783L65.6939 52.0042L65.6558 52.0149L65.6112 52.0042L65.5221 52.0554L65.4818 52.1343L65.4754 52.1791L65.4818 52.2196V52.3561L65.4754 52.4073L65.4861 52.4457V52.531L65.4754 52.5758L65.4861 52.6206L65.4797 52.6718V52.7102L65.4861 52.7443L65.4797 52.7955L65.4733 52.8403L65.4797 52.8914L65.4733 52.9256L65.5136 53.0045L65.5306 53.0279L65.6154 53.0621H65.6536L65.6982 53.0557H65.7491L65.783 53.0621L65.8276 53.0514L65.8891 53.0578H65.9676L66.0185 53.0642H66.0567L66.1288 53.0365L66.1627 53.0024L66.1903 52.9298L66.1839 52.8851L66.1776 52.8467L66.1882 52.8083L66.1818 52.7635L66.1882 52.7187V52.6675L66.1776 52.6227V52.5332L66.1882 52.4948V52.4606L66.1776 52.4031L66.1882 52.3647V52.3241L66.1818 52.273V52.2282L66.1882 52.1941L66.1818 52.1493L66.1436 52.064L66.0673 52.0106ZM66.1351 53.7936L66.063 53.7659L66.0121 53.7765H65.9336L65.8891 53.7659L65.8276 53.7765H65.783L65.7491 53.7701L65.7045 53.7637L65.6473 53.7701L65.6133 53.7637L65.5348 53.7979L65.5073 53.832L65.4839 53.8938L65.4733 53.9514L65.4839 54.041L65.4733 54.0858L65.4839 54.1199L65.4776 54.1583V54.2031L65.4712 54.2543L65.4818 54.3054V54.3438L65.4754 54.3779L65.4691 54.4291V54.5144L65.4754 54.555V54.6061L65.4691 54.6445L65.4797 54.7L65.4733 54.7448L65.5136 54.8237L65.5985 54.8578L65.6536 54.8685H65.6939L65.7385 54.8578H65.7788L65.8339 54.8621L65.8785 54.8685H65.9167L65.9676 54.8578L66.0121 54.8621H66.0503L66.1394 54.8237L66.1839 54.7341V54.604L66.1776 54.5528L66.1712 54.5251V54.3438L66.1818 54.3054L66.1755 54.2543L66.1691 54.2095V54.1583L66.1755 54.1199L66.1818 54.0751V54.0346L66.1712 53.9898L66.1776 53.9386V53.8938L66.1564 53.8256L66.1351 53.7936Z" fill="#B56714"/>
<path d="M69.6108 52.4478L69.6214 52.4926L69.632 52.5438L69.6426 52.5886L69.615 52.6398L69.5705 52.6334L69.5386 52.6398H69.4814L69.4411 52.6334L69.3965 52.627L69.3477 52.6398L69.3074 52.6291H69.2565L69.212 52.6355H69.1717L69.1335 52.6291L69.0762 52.6398H68.9871L68.9532 52.6334L68.9023 52.627H68.862L68.8174 52.6334L68.7899 52.595L68.8068 52.5502V52.499L68.8302 52.4606L68.8535 52.4159L68.8641 52.3135L68.8577 52.2687V52.2282L68.8641 52.1727L68.8535 52.1215L68.8195 52.0362L68.7411 52.0085L68.6859 51.9978L68.652 52.0085L68.5947 52.0021H68.5502L68.5099 52.0085H68.3253L68.2702 52.0021L68.1959 52.0192L68.1683 52.0533L68.1408 52.1215L68.1471 52.1663V52.2559L68.1365 52.3583L68.1471 52.4031L68.1365 52.4372L68.1429 52.4884L68.1365 52.5332V52.6227L68.1471 52.6611L68.1408 52.7123L68.1344 52.7571L68.145 52.8019L68.1344 52.8467L68.145 52.8978V52.9426L68.1683 53.0109L68.1959 53.0386L68.2702 53.0727H68.3147L68.3592 53.0621H68.3995L68.4441 53.0685L68.495 53.0749L68.5396 53.0685H68.5841L68.6286 53.0621L68.6689 53.0685H68.7644L68.8153 53.0749H68.9447L68.9892 53.0642L69.0338 53.0706L69.0847 53.077L69.1292 53.0663L69.1695 53.0727L69.2417 53.0962L69.2756 53.1346L69.3159 53.1623L69.3562 53.19L69.3795 53.2242L69.4517 53.3031L69.4729 53.3265L69.5132 53.3542L69.5471 53.399L69.5705 53.4609L69.5768 53.5121L69.5705 53.5569V53.6422L69.5811 53.687L69.5705 53.7381L69.5811 53.7787V53.8298L69.5705 53.881L69.5768 53.9088L69.5832 53.9535L69.5726 53.9983V54.0943L69.5789 54.1455L69.5853 54.186L69.5747 54.2308L69.5853 54.282L69.5747 54.3161L69.5853 54.3545V54.3993L69.5747 54.4505L69.5811 54.4952L69.5874 54.5358L69.5768 54.5912L69.5832 54.6317V54.6723L69.5895 54.7234V54.7618L69.5789 54.813L69.5853 54.8471V54.8983L69.5917 54.9495L69.5811 54.9943L69.5917 55.0348L69.5853 55.086L69.5789 55.1265V55.1649L69.562 55.2396L69.5217 55.2779L69.4941 55.3185L69.4495 55.3526L69.4156 55.3867L69.3986 55.4144L69.3647 55.4486L69.3244 55.4763L69.2905 55.5104L69.2629 55.5445L69.178 55.5787L69.1377 55.5723L69.0868 55.5787L69.0529 55.5723H68.9574L68.9065 55.5787L68.8726 55.5851L68.828 55.5787H68.7771L68.7368 55.5851H68.6965L68.652 55.5787L68.6011 55.5723H68.5056L68.4717 55.5787L68.4208 55.5723L68.3762 55.5829L68.3317 55.5723L68.2935 55.5829H68.2532L68.2023 55.5765L68.1641 55.5701L68.1089 55.5808H68.0686L68.0241 55.5701H67.9265L67.882 55.5808L67.8311 55.5744L67.7589 55.5467L67.725 55.5083L67.6974 55.4742L67.6359 55.4059L67.602 55.3718L67.568 55.3377L67.5447 55.3142L67.5065 55.2694L67.4726 55.2417L67.445 55.1628V55.1244L67.4344 55.0732V55.0391L67.4408 54.9879L67.4471 54.9431L67.4365 54.9047L67.4429 54.8535V54.717L67.4492 54.6765V54.5422L67.4259 54.4526L67.4089 54.395L67.4026 54.3502L67.375 54.2713L67.3983 54.2159L67.4874 54.2265L67.5277 54.2159H67.5723L67.6274 54.2223H67.7144L67.7526 54.2287L67.7908 54.2223L67.848 54.2159L67.882 54.2265L67.9329 54.2159L67.9838 54.2265L68.0283 54.2159L68.0686 54.2265H68.1132L68.1641 54.2201L68.2044 54.2137L68.2214 54.2649L68.2108 54.3097L68.1938 54.3609L68.1832 54.4057L68.1662 54.4505L68.1492 54.5294L68.1386 54.6189L68.1492 54.6637L68.1429 54.7085L68.1662 54.7938L68.2002 54.828L68.2786 54.845H68.3295L68.3677 54.8557L68.4186 54.845H68.4695L68.5035 54.8557L68.5544 54.8514L68.5989 54.8557L68.6435 54.8514L68.6944 54.845L68.7453 54.8514L68.8068 54.8237L68.845 54.8024L68.8683 54.7234V54.6851L68.8577 54.6339L68.8641 54.5934L68.8577 54.5379L68.8683 54.4974V54.2713L68.862 54.2308V54.1903L68.8683 54.1348L68.8577 54.09V54.0452L68.8641 54.0047L68.8577 53.9535L68.8683 53.9194L68.845 53.8405L68.8068 53.817L68.7389 53.7829H68.6986L68.6414 53.7893L68.6032 53.7957H68.5629L68.5077 53.7851H68.3741L68.3402 53.7915H68.2829L68.2489 53.7978H68.1917L68.1535 53.7872H68.1026L68.058 53.7936L68.0199 53.8L67.9795 53.7936L67.9244 53.7872L67.8798 53.7936L67.8353 53.7872L67.7674 53.7531L67.7059 53.6912L67.672 53.6571L67.638 53.623L67.5977 53.5995L67.5702 53.5547L67.5468 53.5334L67.5086 53.4886L67.4747 53.4673L67.4344 53.3884L67.4408 53.3372V53.2924L67.4344 53.254L67.445 53.2135L67.4344 53.158L67.4408 53.1239L67.4344 53.0685L67.445 53.0279L67.4344 52.9896L67.4408 52.9384L67.4344 52.8936L67.4408 52.8488L67.4344 52.8147L67.445 52.7592L67.4344 52.7144V52.6696L67.445 52.6249L67.4386 52.5865V52.4564L67.445 52.4116L67.4344 52.3732L67.4408 52.3284V52.2836L67.4344 52.226L67.4408 52.1877V52.1429L67.4471 52.1045L67.4408 52.0469L67.4344 52.0128V51.9573L67.4408 51.9125V51.8784L67.4344 51.8336L67.445 51.7888L67.4386 51.7441L67.4323 51.6929L67.4429 51.6033L67.4323 51.5692L67.4429 51.518V51.4775L67.4365 51.4263L67.4429 51.3815V51.3303L67.4768 51.2962H67.6168L67.6614 51.2898L67.7017 51.2962L67.7526 51.2898H67.8417L67.8926 51.2962L67.9371 51.2855L67.9711 51.2962H68.022L68.0602 51.2898H68.1111L68.1556 51.2834H68.2405L68.285 51.2898L68.3232 51.2962L68.3741 51.2855H68.425L68.4695 51.2962L68.4971 51.2898H68.5926L68.6371 51.2834H68.6774L68.7347 51.2941L68.7729 51.2834L68.8238 51.2898L68.8641 51.2834L68.9086 51.2941H68.9595L68.9977 51.2877H69.0826L69.1271 51.2941H69.178L69.212 51.2834H69.2629L69.3032 51.2898L69.3541 51.2962L69.3986 51.2898H69.4941L69.5344 51.2962L69.5789 51.341V51.4305L69.5726 51.4647V51.6566L69.5832 51.6907L69.5768 51.7462L69.5832 51.7867L69.5768 51.8379V51.872L69.5832 51.9275V51.9616L69.5768 52.0128V52.064L69.5705 52.0981L69.5811 52.1493L69.5705 52.1898L69.5811 52.241L69.5747 52.2922L69.5683 52.3305L69.5853 52.4201L69.6108 52.4478Z" fill="#B56714"/>
<path d="M18.375 54.3705V48.6441H20.7338V49.4631H19.2701V54.3705H18.375Z" fill="#311C00"/>
<path d="M21 53.56C21.4073 53.56 21.5367 53.5025 21.5536 52.9714L21.7 48.6441H24.2306V54.3705H23.3185V49.4631H22.5379L22.4403 52.9224C22.4085 53.9695 22.033 54.379 21.1379 54.379H21V53.56Z" fill="#311C00"/>
<path d="M27.633 54.3705H26.7294L26.5745 53.3318H25.4758L25.3209 54.3705H24.5L25.4121 48.6441H26.7209L27.633 54.3705ZM25.5903 52.5555H26.4536L26.023 49.6593L25.5903 52.5555Z" fill="#311C00"/>
<path d="M30.6749 49.96V50.1648C30.6749 50.7534 30.4967 51.1309 30.0979 51.3186C30.5773 51.5062 30.7639 51.9392 30.7639 52.5449V53.0119C30.7639 53.8949 30.2994 54.3705 29.4064 54.3705H28V48.6441H29.3512C30.2761 48.6441 30.6749 49.0771 30.6749 49.96ZM28.893 49.461V50.9731H29.243C29.5761 50.9731 29.7797 50.8259 29.7797 50.3674V50.0475C29.7797 49.638 29.6418 49.4588 29.3236 49.4588H28.893V49.461ZM28.893 51.792V53.5515H29.4064C29.7076 53.5515 29.8709 53.4129 29.8709 52.9863V52.4873C29.8709 51.9562 29.6991 51.792 29.2939 51.792H28.893Z" fill="#311C00"/>
<path d="M32.3952 54.3705H31.5V48.6441H34.3233V54.3705H33.4133V49.4631H32.3973V54.3705H32.3952Z" fill="#311C00"/>
<path d="M35.9185 54.3705H35V48.6441H35.7976V52.2676L36.1221 51.0072L36.8539 48.6441H37.8382V54.3705H37.0321V50.3375L36.6652 51.7451L35.9185 54.3705Z" fill="#311C00"/>
<path d="M41.177 49.96V50.1648C41.177 50.7534 40.9988 51.1309 40.6 51.3186C41.0794 51.5062 41.2661 51.9392 41.2661 52.5449V53.0119C41.2661 53.8949 40.8015 54.3705 39.9064 54.3705H38.5V48.6441H39.8512C40.7782 48.6441 41.177 49.0771 41.177 49.96ZM39.3952 49.461V50.9731H39.7452C40.0782 50.9731 40.2818 50.8259 40.2818 50.3674V50.0475C40.2818 49.638 40.1439 49.4588 39.8258 49.4588H39.3952V49.461ZM39.3952 51.792V53.5515H39.9085C40.2097 53.5515 40.373 53.4129 40.373 52.9863V52.4873C40.373 51.9562 40.2012 51.792 39.7961 51.792H39.3952Z" fill="#311C00"/>
<path d="M43.9027 52.7091L44.5136 48.6441H45.7588V54.3705H44.9124V50.265L44.2951 54.3705H43.4488L42.7806 50.3226V54.3705H42V48.6441H43.2451L43.9027 52.7091Z" fill="#311C00"/>
<path d="M49.508 54.3705H48.6044L48.4495 53.3318H47.3508L47.1959 54.3705H46.375L47.285 48.6441H48.5938L49.508 54.3705ZM47.4653 52.5555H48.3286L47.898 49.6593L47.4653 52.5555Z" fill="#311C00"/>
<path d="M49.875 54.3705V48.6441H52.2338V49.4631H50.7702V54.3705H49.875Z" fill="#311C00"/>
</svg>
